<?xml version="1.0" encoding="utf-8"?>
<!-- Generator: Adobe Illustrator 26.0.1, SVG Export Plug-In . SVG Version: 6.00 Build 0)  -->
<svg version="1.1" id="Capa_1" xmlns="http://www.w3.org/2000/svg" xmlns:xlink="http://www.w3.org/1999/xlink" x="0px" y="0px"
	 viewBox="0 0 528 690.7" style="enable-background:new 0 0 528 690.7;" xml:space="preserve">
<style type="text/css">
	.st0{fill:#2F2E41;}
	.st1{fill:#FFB8B8;}
	.st2{fill:#6C63FF;}
	.st3{fill:#FFB6B6;}
	.st4{fill:#E6E6E6;}
	.st5{fill:#FFFFFF;}
	.st6{fill:#CCCCCC;}
	.st7{fill:#FD6584;}
</style>
<g>
	<path class="st0" d="M309.5,126.1c-8.7,15.1,7.7,40.4-8.9,45.7l1.4-1.4c10-12.3-10.9-38.4-0.9-50.7c1.6-1.8,2.9-3.8,4-5.9"/>
	<path class="st1" d="M391.4,347.1c1.1-5.7-2.7-11.2-8.3-12.3c-0.6-0.1-1.2-0.2-1.8-0.2l-21.6-62.8l-12,15.2l22.9,58.7
		c0.3,5.8,5.3,10.3,11.1,10C386.4,355.5,390.5,351.9,391.4,347.1L391.4,347.1z"/>
	<path class="st2" d="M296.4,195.5c0,0-0.7-22.7,19.7-9.7s64.6,135,64.6,135l-22,11.9l-50-111.6L296.4,195.5z"/>
	<polygon class="st3" points="356.3,585.1 346.2,589.4 324.6,552.4 339.6,545.9 	"/>
	<path class="st0" d="M369.2,600.4l-7.3,3.1l-4.2-6.3l-0.4,8.3l-19.3,8.2c-2.4,1-5.2-0.1-6.2-2.5c-0.6-1.4-0.5-3.1,0.3-4.4
		l10.9-17.2l-3-6.9l16.6-6L369.2,600.4z"/>
	<polygon class="st3" points="197.2,597.7 186.2,597.1 183,554.4 199.3,555.2 	"/>
	<path class="st0" d="M202.1,617.1l-7.9-0.4l-1-7.5l-4,7.3l-21-1c-2.6-0.1-4.6-2.3-4.5-4.9c0.1-1.5,0.9-3,2.2-3.8l17.3-10.7l0.4-7.5
		l17.6,1.9L202.1,617.1z"/>
	<path class="st0" d="M225.1,319.6c0,0-22.4,61.1-22.8,67.9s-6.8,93.3-12.1,98.3s-21.8,82.9-9,89s53-4,53-4l14-92l4.8-70.5
		c0,0,14.5,166,40.7,165.5s58.3-10.5,58.3-10.5l-36.8-100.5c0,0,0.5-119-8-143S225.1,319.6,225.1,319.6z"/>
	<path class="st2" d="M291.6,162.2l-30,2.8l-4.8,14.8c0,0-25.1,13.8-19.6,20.1s-1.2,48.5-1.2,48.5l1.5,34.3c0,0-1.7,23.8-6.6,29.2
		s-17.9,18.9-8.7,12.5c32-22.5,88-3.5,88-3.5l-8-49c0,0,18.2-80.2,11-87s-13.9-7.6-13.9-7.6L291.6,162.2z"/>
	<path class="st1" d="M133.8,317.6c5.7-1.1,9.5-6.5,8.4-12.2c-0.1-0.6-0.3-1.2-0.5-1.8l50.6-43l-18.6-5.6l-46.4,42.6
		c-5.3,2.4-7.6,8.7-5.2,14C124.2,316.1,129,318.5,133.8,317.6z"/>
	<path class="st2" d="M262.4,205.2c0,0,10-20.4-13.9-16.9s-114.5,96.4-114.5,96.4l15.2,19.9l91.5-81.1L262.4,205.2z"/>
	<path class="st4" d="M223.5,170.6l-94.7,121.3c-3.4,4.4-2.6,10.7,1.7,14.1c22,53.4,87.8,93,165.2,128.9c4.4,3.4,10.7,2.6,14.1-1.7
		l94.7-121.3c3.4-4.4,2.6-10.7-1.7-14.1c-65-36.7-120.8-79.2-165.2-128.9C233.3,165.4,227,166.2,223.5,170.6z"/>
	<path class="st5" d="M397.9,309.1l-28.8,36.9c-36.7,46.7-104.1,55-151,18.6l-80.8-63.1c-2.5-1.9-2.9-5.5-1-8l91.5-117.2
		c2-2.5,5.5-2.9,8-1c40.9,52.8,95.6,93.8,161.1,125.7C399.4,303.1,399.9,306.6,397.9,309.1z"/>
	<path class="st6" d="M221.7,236.8l-18.8,24.1c-1,1.3-3,1.6-4.3,0.5c-1.3-1-1.6-2.9-0.5-4.3l18.8-24.1c1-1.3,3-1.6,4.3-0.5
		C222.5,233.5,222.7,235.5,221.7,236.8C221.7,236.8,221.7,236.8,221.7,236.8L221.7,236.8z"/>
	<path class="st6" d="M256.9,219l-41.2,52.8c-1,1.3-3,1.6-4.3,0.5c-1.3-1-1.6-3-0.5-4.3l0,0l41.2-52.8c1-1.3,3-1.6,4.3-0.5
		C257.7,215.7,257.9,217.6,256.9,219C256.9,219,256.9,219,256.9,219z"/>
	<circle class="st2" cx="186.5" cy="287" r="20.1"/>
	<path class="st6" d="M259.1,260.7l-50.6,64.9c-1.2,1.2-3.1,1.2-4.3,0c-1-1-1.2-2.6-0.5-3.8l50.6-64.9c1.2-1.2,3.1-1.2,4.3,0
		C259.6,257.9,259.8,259.5,259.1,260.7z"/>
	<path class="st6" d="M291.9,245.9l-70.7,90.5c-1.2,1.2-3.1,1.2-4.3,0c-1-1-1.2-2.6-0.5-3.8l70.7-90.5c1.2-1.2,3.1-1.2,4.3,0
		C292.5,243.1,292.6,244.7,291.9,245.9L291.9,245.9z"/>
	<path class="st6" d="M291.7,286.2L241,351c-1.2,1.2-3.1,1.2-4.3,0c-1-1-1.2-2.6-0.5-3.8l50.6-64.9c1.2-1.2,3.1-1.2,4.3,0
		C292.2,283.4,292.4,284.9,291.7,286.2L291.7,286.2z"/>
	<path class="st2" d="M358.7,294.2L308,359c-1.2,1.2-3.1,1.2-4.3,0c-1-1-1.2-2.6-0.5-3.8l50.6-64.9c1.2-1.2,3.1-1.2,4.3,0
		C359.2,291.4,359.4,292.9,358.7,294.2L358.7,294.2z"/>
	<path class="st6" d="M324.5,271.3l-70.7,90.5c-1.2,1.2-3.1,1.2-4.3,0c-1-1-1.2-2.6-0.5-3.8l70.7-90.5c1.2-1.2,3.1-1.2,4.3,0
		C325.1,268.6,325.3,270.1,324.5,271.3z"/>
	<path class="st0" d="M241.3,123.9c0,16.5,13.3,29.8,29.8,29.8s29.8-13.3,29.8-29.8c0-7.7-3-15.1-8.4-20.7l-0.1-0.1
		c-0.2-0.3-0.5-0.5-0.7-0.7c0,0,0,0,0,0c0,0,0,0,0,0c-0.3-0.3-0.6-0.6-0.9-0.8c-12.4-10.9-31.2-9.6-42.1,2.8
		C243.9,109.6,241.3,116.6,241.3,123.9L241.3,123.9z"/>
	<circle class="st1" cx="278.4" cy="130.8" r="25"/>
	<path class="st0" d="M251.8,137.4c-2.4-11,1.1-23.4,8.8-30.7c7.9-7.4,19.4-9.6,29.4-5.7c0.6,0.3,1.3,0.5,1.9,0.8l0.3,0.1v0
		c0.1,0,0.1,0.1,0.2,0.1c0.1,0.1,0.3,0.2,0.4,0.2c4.4-0.1,8.6,1.6,11.6,4.8c3.9,4.2,5.7,11,5.1,19.1l0,0.3l-0.2,0.1
		c-2.9,1.9-6,3.5-9.1,5c-11,5.2-21,6.1-30.6,2.9l-0.2-0.1l-4-6.8c-0.8,4.7-0.4,20.2-5.1,21l-8.3-11L251.8,137.4z"/>
	<path class="st0" d="M199.1,159.2c8.5-4.4-2.4-20.3-0.2-29.7c2.2-9.3,18-12.3,19-21.8s3.4-19.3,9.7-26.6c4-4.6,9.9-8,16-7.4
		c7.9,0.8,13.7,7.8,13,15.7c-0.1,0.7-0.2,1.4-0.4,2.1c1.7-2.5,6.2-1.9,7.3,0.9c1,2.5-1.2,5.5-3.8,5.7c-3.4,4.1-7.2,8.6-12.5,9.4
		c-1.7,0.4-3.5,0-4.8-1.1c-1.2-1.2-1.3-3.6,0.1-4.5c-6.6,2.6-10.5,9.8-11.5,16.8c-1,7.1,0.4,14.2,1.3,21.2s1.3,14.5-1.5,21.1
		c-3.3,7.7-10.8,13.3-19,15.1s-17,0-24.4-3.9c-7.4-3.9-13.6-9.9-18.7-16.6C177.5,161.8,189.6,164.1,199.1,159.2z"/>
	<path class="st0" d="M266.5,129.1c-8.7,15.1,7.7,40.4-8.9,45.7l1.4-1.4c10-12.3-10.9-38.4-0.9-50.7c1.6-1.8,2.9-3.8,4-5.9"/>
	<path class="st7" d="M252.9,137.2c0,0,7.4-27.7,39.2-34c0,0,0.2-0.1,0.3-0.1c0.1-0.1,0.2-0.1,0.3-0.2c-0.4-0.2-0.7-0.4-1.1-0.6
		c0,0,0,0,0,0c0,0,0,0,0,0c-0.3-0.3-0.6-0.6-0.9-0.8l-0.9,0C289.8,101.5,258,96.4,252.9,137.2z"/>
</g>
<path class="st6" d="M0,619.5c0,0.7,0.5,1.2,1.2,1.2c0,0,0,0,0,0h715.3c0.7,0,1.2-0.5,1.2-1.2s-0.5-1.2-1.2-1.2H1.2
	C0.5,618.3,0,618.8,0,619.5C0,619.5,0,619.5,0,619.5z"/>
</svg>
